<svg width="122" height="122" viewBox="0 0 122 122" fill="none" xmlns="http://www.w3.org/2000/svg">
<path d="M23.8151 86.8993L23.814 86.8987C22.5762 86.184 21.5481 85.1564 20.8328 83.919C20.1177 82.6818 19.7404 81.2784 19.7388 79.8495V41.791C19.7428 41.0202 19.8521 40.2567 20.0613 39.5213L58.8784 61.972V106.793C58.2997 106.653 57.7353 106.454 57.1943 106.197L23.8151 86.8993Z" stroke="white" stroke-width="4"/>
<path d="M102.043 41.877V79.9332C102.042 81.3625 101.664 82.7663 100.949 84.0037C100.234 85.2412 99.2056 86.2688 97.9677 86.9834L64.4446 106.328C63.9488 106.556 63.4324 106.737 62.9033 106.867V62.0567L101.719 39.6068C101.928 40.3428 102.038 41.1065 102.043 41.877Z" stroke="white" stroke-width="4"/>
<path d="M98.8667 33.5726C100.12 34.321 101.184 35.3487 101.978 36.569L60.9031 60.3255L19.8291 36.5694C20.6251 35.3499 21.6882 34.3245 22.9402 33.5723L56.0737 14.4431C56.0744 14.4427 56.0751 14.4423 56.0759 14.4419C59.0689 12.7533 62.7376 12.7533 65.7306 14.442C65.7313 14.4424 65.7319 14.4427 65.7326 14.4431L98.8637 33.5708C98.8647 33.5714 98.8657 33.572 98.8667 33.5726Z" stroke="white"/>
<path d="M35.4273 77.4244L35.4263 77.4238C34.6823 76.9943 34.0644 76.3767 33.6346 75.633C33.2048 74.8896 32.9781 74.0463 32.9771 73.1876V47.3247C32.978 47.1432 32.9887 46.9624 33.0089 46.7829L58.2953 61.4079V90.6175C58.226 90.5886 58.1572 90.5582 58.0891 90.5262L35.4273 77.4244Z" stroke="white" stroke-width="4"/>
<path d="M87.6302 47.3833L87.6302 73.2442C87.6302 73.2448 87.6302 73.2453 87.6302 73.2458C87.6291 74.1043 87.4023 74.9474 86.9727 75.6906C86.5429 76.4341 85.9252 77.0516 85.1814 77.4811C85.1813 77.4812 85.1812 77.4813 85.181 77.4814L62.4244 90.6128C62.3871 90.6298 62.3497 90.6463 62.312 90.6623V61.4655L87.5978 46.8409C87.6182 47.0205 87.629 47.2016 87.6302 47.3833Z" stroke="white" stroke-width="4"/>
<path d="M86.0312 41.8759C86.8129 42.3428 87.4835 42.9739 87.9984 43.721L60.3117 59.7342L32.6258 43.7214C33.1418 42.9749 33.8119 42.345 34.593 41.8755L57.1083 28.8766C57.109 28.8762 57.1097 28.8758 57.1104 28.8754C59.0953 27.7558 61.5282 27.7558 63.5131 28.8754C63.5138 28.8758 63.5145 28.8762 63.5152 28.8766L86.0281 41.874C86.0291 41.8747 86.0302 41.8753 86.0312 41.8759Z" stroke="white"/>
</svg>
